# xmcd
#
# Track frame offsets:
#	150
#	29097
#	46810
#	62717
#	86040
#	101975
#	122465
#	148372
#	166022
#	182182
#	196805
#	214265
#	239430
#	257692
#	275285
#	292467
#	310290
#
# Disc length: 4746 seconds
#
# Revision: 3
# Processed by: cddbd v1.4PL0 Copyright (c) Steve Scherf et al.
# Submitted via: audiograbber 1.81.01
#
DISCID=0c128811
DTITLE=Various Artist - Kiss in Ibiza '97 - CD 2
DYEAR=1997
DGENRE=Dance
TTITLE0=Ultra Naté - Free (Mood II Swing Vocal Mix) (Extended 12" Mix)
TTITLE1=Tina Moore - Never Gonna Let You Go (Keely G Bump-N-Go Edit)
TTITLE2=Nu-Birth - Anytime
TTITLE3=East 57th St. Feat. Donna Allen - Saturday (Sharp Vocal Mix)
TTITLE4=Jaydee - Plastic Dreams (morales Club Edit)
TTITLE5=Industry Standard - Vol 1 "Tell Me What You Want"
TTITLE6=Smokin' Beats - Dreams (Club Mix)
TTITLE7=The Ballistic Brothers Vs Armand Van Halen - Ballistic Phunk (Ballistic
TTITLE7=Brothers Mix)
TTITLE8=TJR Feat. Xavier - Just Gets Better
TTITLE9=Underground Distortion - Everythin' Is Large 
TTITLE10=Double 99 - Rip Groove (Original Version)
TTITLE11=The Beloved - The Sun Rising (Tom' Drum and Bass Mix)
TTITLE12=Way Out West - Blue (Orignal Mix)
TTITLE13=Airscape - Pacific Melody (R&D  Edit)
TTITLE14=Chicane with Power Circle - Offshore'97 (Anthony Papa Bootleg Mix)
TTITLE15=Nalin and Kane - Beachball (Original Club Edit)
TTITLE16=You're Not Alone (Oakenfield/Osborne REmix) - You're Not Alone (Oakenf
TTITLE16=ield/Osborne Remix) (12" Mix)
EXTD=Blues my arse - these caegories r pants - big pants - sort it out
EXTT0=
EXTT1=
EXTT2=
EXTT3=
EXTT4=
EXTT5=
EXTT6=
EXTT7=
EXTT8=
EXTT9=
EXTT10=
EXTT11=
EXTT12=
EXTT13=
EXTT14=
EXTT15=
EXTT16=
PLAYORDER=
